<svg xmlns="http://www.w3.org/2000/svg" width="106" height="40" fill="none"><path fill="#1F2041" d="M62.34 13.37c.22 0 .4.07.54.23.15.14.22.32.22.54 0 .2-.07.4-.22.54-.14.15-.32.23-.55.23h-3.76v10.5c0 .23-.07.42-.23.57-.14.14-.32.2-.54.2-.2 0-.4-.06-.54-.2-.15-.15-.23-.34-.23-.56V14.9h-3.76c-.2 0-.4-.07-.54-.22-.15-.15-.23-.33-.23-.54 0-.22.08-.4.23-.54.15-.16.33-.23.54-.23h9.06zM68.9 13.37c.9 0 1.73.17 2.5.5.8.34 1.5.8 2.08 1.4.6.57 1.06 1.26 1.4 2.05.33.78.5 1.62.5 2.5 0 1.04-.22 2-.66 2.88-.45.87-1.05 1.6-1.8 2.2 0 0-.02 0-.04.04-.56.42-1.17.75-1.84 1-.66.23-1.37.34-2.13.34-.88 0-1.7-.17-2.5-.5-.78-.34-1.46-.8-2.06-1.4-.58-.57-1.04-1.25-1.38-2.03-.34-.8-.5-1.63-.5-2.52 0-.98.2-1.9.6-2.72.38-.83.92-1.54 1.6-2.14l.08-.07s.03-.02.06-.04c.56-.47 1.2-.83 1.9-1.1.7-.26 1.43-.4 2.2-.4zm0 11.37c.45 0 .87-.05 1.27-.15.4-.13.8-.3 1.15-.5l-6.14-7.46c-.37.43-.66.92-.87 1.47-.2.55-.3 1.12-.3 1.73 0 .67.12 1.3.38 1.9.25.6.6 1.12 1.05 1.58.45.45.98.8 1.57 1.06.6.25 1.23.38 1.9.38zm3.63-1.6c.4-.43.72-.93.95-1.5.23-.57.35-1.17.35-1.8 0-.7-.13-1.33-.4-1.92-.25-.6-.6-1.12-1.06-1.56-.44-.45-.96-.8-1.55-1.07-.6-.26-1.24-.4-1.9-.4-.48 0-.93.07-1.36.2-.43.12-.83.3-1.2.53l6.17 7.52zM82.35 20.63c-.23 0-.43-.1-.6-.28l-4.5-5.77c-.12-.17-.17-.35-.15-.55.02-.2.12-.38.28-.5.16-.13.35-.18.54-.14.2 0 .38.1.5.27l3.93 5 3.83-4.92c.13-.16.3-.25.5-.28.2-.02.4.03.55.16.17.13.26.3.28.5.04.2-.02.4-.14.55l-4.4 5.67c-.17.2-.36.28-.6.28zm4.92 5.64c-.05 0-.12 0-.23-.02-.1 0-.2-.04-.33-.1-.12-.05-.26-.12-.4-.22-.15-.1-.3-.24-.43-.42L82.35 21l-3.83 4.94c-.13.16-.3.25-.5.28-.2.02-.4-.03-.55-.16-.16-.13-.26-.3-.28-.5-.03-.2.02-.4.15-.55l4.4-5.68c.15-.2.34-.28.58-.28.26 0 .46.1.62.28l4.1 5.25c.05.08.1.13.15.16.05.02.08.04.1.05.2 0 .37.07.5.2.13.14.2.3.22.5.02.2-.03.4-.17.54-.14.15-.32.23-.53.25h-.05zM91.73 26.27c-.22 0-.4-.08-.56-.23-.15-.15-.22-.34-.22-.56V14.1c0-.2.07-.4.22-.54.16-.15.34-.23.56-.23.2 0 .4.08.55.23.15.15.22.33.22.54v11.38c0 .22-.07.4-.22.56-.15.15-.34.23-.55.23zM104.94 26.23c-.26 0-.46-.1-.6-.3l-7.3-9.6v9.15c0 .2-.07.4-.22.54-.14.14-.32.2-.53.2-.2 0-.38-.06-.53-.2-.15-.15-.23-.33-.23-.54V14.12c0-.16.05-.3.14-.44.1-.13.22-.2.4-.26.14-.06.3-.06.44-.02.15.05.28.14.4.27l7.27 9.6v-9.15c-.02-.2.05-.37.2-.52.15-.16.33-.23.54-.23.2 0 .38.07.52.23.15.15.23.32.23.52v11.36c0 .16-.06.3-.15.44-.1.12-.22.22-.37.28-.1.02-.2.03-.24.03z"/><path fill="url(#a)" d="M20 27.06c-.65 0-1.18-.53-1.18-1.18 0-4.53-3.7-8.23-8.23-8.23-.66 0-1.2-.53-1.2-1.18 0-.65.54-1.18 1.2-1.18 5.84 0 10.58 4.73 10.58 10.58 0 .65-.53 1.18-1.18 1.18z"/><path fill="url(#b)" d="M30.6 16.47c0 .65-.54 1.18-1.2 1.18-2.78 0-5.28 1.4-6.75 3.56-.33-.82-.7-1.58-1.18-2.3 1.94-2.22 4.8-3.6 7.94-3.6.66 0 1.2.52 1.2 1.17z"/><path fill="url(#c)" d="M20 40C8.97 40 0 31.03 0 20S8.97 0 20 0s20 8.97 20 20-8.97 20-20 20zm0-37.65c-9.74 0-17.65 7.9-17.65 17.65 0 9.74 7.9 17.65 17.65 17.65 9.74 0 17.65-7.9 17.65-17.65 0-9.74-7.9-17.65-17.65-17.65z"/><defs><linearGradient id="a" x1="15.294" x2="15.294" y1="15.294" y2="27.059" gradientUnits="userSpaceOnUse"><stop stop-color="#BC9CFF"/><stop offset="1" stop-color="#8BA4F9"/></linearGradient><linearGradient id="b" x1="26.029" x2="26.029" y1="15.294" y2="21.206" gradientUnits="userSpaceOnUse"><stop stop-color="#6FCF97"/><stop offset="1" stop-color="#66D2EA"/></linearGradient><linearGradient id="c" x1="20" x2="20" y2="40" gradientUnits="userSpaceOnUse"><stop stop-color="#BC9CFF"/><stop offset="1" stop-color="#8BA4F9"/></linearGradient></defs></svg>