<svg xmlns="http://www.w3.org/2000/svg" width="48" height="48" fill="none"><path fill="#1F2041" fill-opacity=".25" d="M24 32.47c-.78 0-1.4-.63-1.4-1.4 0-5.45-4.46-9.9-9.9-9.9-.77 0-1.4-.63-1.4-1.4 0-.78.63-1.42 1.4-1.42 7.03 0 12.7 5.7 12.7 12.7 0 .8-.62 1.42-1.4 1.42zM36.7 19.77c0 .77-.63 1.4-1.4 1.4-3.36 0-6.36 1.7-8.12 4.28-.4-1-.85-1.9-1.4-2.76 2.3-2.7 5.74-4.35 9.52-4.35.77 0 1.4.64 1.4 1.42zM24 48C10.76 48 0 37.24 0 24S10.76 0 24 0s24 10.76 24 24-10.76 24-24 24zm0-45.18C12.32 2.82 2.82 12.32 2.82 24S12.32 45.18 24 45.18 45.18 35.68 45.18 24 35.68 2.82 24 2.82z"/></svg>