<svg xmlns="http://www.w3.org/2000/svg" width="22" height="22" fill="none"><path fill="url(#a)" d="M19.25.5c.63 0 1.16.22 1.6.66.43.43.65.97.65 1.6v16.5c0 .6-.22 1.15-.66 1.58-.43.44-.96.66-1.6.66h-6.4v-7.13h2.7l.52-3.37h-3.23V8.8c0-1.2.62-1.78 1.87-1.78h1.46V4.16c-.88-.16-1.74-.24-2.58-.24-.9 0-1.7.17-2.35.52-.62.34-1.12.86-1.5 1.54-.37.7-.56 1.5-.56 2.44V11H6.22v3.38h2.95v7.12H2.75c-.63 0-1.16-.22-1.6-.66-.43-.43-.65-.96-.65-1.6V2.75c0-.62.22-1.15.66-1.58C1.6.72 2.13.5 2.76.5h16.5z"/><defs><linearGradient id="a" x1="11" x2="11" y1="1" y2="25" gradientUnits="userSpaceOnUse"><stop stop-color="#BC9CFF"/><stop offset="1" stop-color="#8BA4F9"/></linearGradient></defs></svg>