<svg xmlns="http://www.w3.org/2000/svg" width="22" height="22" fill="none"><path fill="url(#a)" d="M7.2 7.2c1.07-1.06 2.35-1.6 3.85-1.6s2.76.54 3.8 1.6c1.06 1.03 1.6 2.3 1.6 3.8s-.54 2.78-1.6 3.84c-1.04 1.04-2.3 1.55-3.8 1.55s-2.78-.52-3.85-1.56C6.17 13.78 5.66 12.5 5.66 11s.5-2.77 1.54-3.8zm1.36 6.28c.7.7 1.52 1.04 2.5 1.04.96 0 1.78-.35 2.47-1.04.7-.68 1.03-1.5 1.03-2.48 0-.97-.34-1.8-1.03-2.48-.7-.7-1.5-1.04-2.48-1.04-.97 0-1.8.35-2.5 1.04-.68.68-1.02 1.5-1.02 2.48 0 .97.34 1.8 1.03 2.48zm8.96-8.95c.25.22.37.5.37.84 0 .35-.13.65-.38.9-.22.25-.5.37-.85.37-.34 0-.64-.12-.9-.37-.24-.25-.36-.55-.36-.9 0-.34.13-.62.38-.84.25-.25.55-.37.9-.37.34 0 .62.12.84.37zM21.5 6.7c.03.83.05 2.27.05 4.3s-.02 3.47-.05 4.3c-.1 1.92-.67 3.4-1.73 4.47-1.04 1.03-2.5 1.57-4.4 1.64-.85.07-2.3.1-4.32.1-2.03 0-3.47-.03-4.32-.1-1.9-.1-3.37-.65-4.4-1.68-.4-.38-.74-.8-1-1.3-.24-.5-.42-1-.55-1.47-.1-.47-.14-1-.14-1.64-.06-.83-.1-2.27-.1-4.3s.04-3.48.1-4.36c.1-1.87.66-3.33 1.7-4.36C3.35 1.22 4.83.64 6.73.55 7.57.52 9 .5 11.03.5c2.04 0 3.48.02 4.32.05 1.9.1 3.37.67 4.4 1.73 1.07 1.03 1.65 2.5 1.74 4.4zm-2.25 10.5c.1-.26.17-.57.23-.95.07-.4.1-.88.14-1.4.04-.57.05-1.02.05-1.37 0-.34 0-.82 0-1.45 0-.62 0-.97 0-1.03 0-.1 0-.44 0-1.03 0-.63 0-1.1 0-1.45 0-.35 0-.8-.05-1.32-.03-.56-.07-1.03-.14-1.4-.06-.4-.14-.74-.23-1-.38-.96-1.05-1.63-2.02-2-.25-.1-.57-.17-.98-.24-.38-.06-.84-.1-1.4-.14-.54-.03-.97-.04-1.32-.04-.3 0-.8 0-1.45 0-.63 0-.97 0-1.03 0-.07 0-.4 0-1.03 0s-1.1 0-1.46 0c-.34 0-.8 0-1.36.04-.53.03-1 .08-1.4.14-.38.06-.7.14-.94.24-.97.37-1.64 1.04-2.02 2-.1.26-.17.6-.23 1-.05.37-.1.84-.13 1.4-.03.53-.05.97-.05 1.32 0 .3 0 .8 0 1.45 0 .62 0 .97 0 1.03 0 .13 0 .42 0 .9 0 .43 0 .8 0 1.12 0 .28 0 .65 0 1.12.03.47.06.88.1 1.22.03.3.07.64.14.98.06.35.12.63.18.85.4.96 1.08 1.63 2.02 2 .25.1.56.18.94.24.4.06.87.1 1.4.14.57.03 1 .05 1.32.05.34 0 .82 0 1.45 0 .65 0 1 0 1.08 0 .1 0 .43 0 1.03 0 .62 0 1.1 0 1.45 0 .35 0 .78-.02 1.3-.05.58-.03 1.04-.08 1.42-.14.4-.07.73-.14.98-.24.97-.4 1.64-1.07 2.02-2z"/><defs><linearGradient id="a" x1="11" x2="11" y1="1" y2="25" gradientUnits="userSpaceOnUse"><stop stop-color="#BC9CFF"/><stop offset="1" stop-color="#8BA4F9"/></linearGradient></defs></svg>