<svg xmlns="http://www.w3.org/2000/svg" width="24" height="20" fill="none"><path fill="url(#paint0_linear)" d="M21.52 5.13c.03.12.04.32.04.6 0 1.66-.31 3.32-.93 4.97a15.73 15.73 0 01-2.68 4.5 12.53 12.53 0 01-4.4 3.28 14.04 14.04 0 01-6 1.27c-2.75 0-5.27-.73-7.55-2.2.34.03.73.04 1.17.04 2.28 0 4.33-.7 6.14-2.1-1.1 0-2.06-.32-2.9-.94a5.08 5.08 0 01-1.7-2.44 6.24 6.24 0 002.2-.1 4.78 4.78 0 01-2-.93 4.86 4.86 0 01-1.92-3.9V7.1c.68.41 1.42.63 2.2.66a4.73 4.73 0 01-2.2-4.13c0-.87.23-1.7.7-2.48A13.65 13.65 0 0011.8 6.3c-.06-.38-.1-.75-.1-1.13 0-1.34.48-2.5 1.41-3.47A4.73 4.73 0 0116.6.25c1.44 0 2.64.52 3.61 1.55 1.13-.22 2.18-.61 3.14-1.18a4.88 4.88 0 01-2.15 2.72c.93-.12 1.87-.39 2.81-.8-.69 1-1.52 1.87-2.48 2.58z"/><defs><linearGradient id="paint0_linear" x1="12" x2="12" y1="0" y2="24" gradientUnits="userSpaceOnUse"><stop stop-color="#BC9CFF"/><stop offset="1" stop-color="#8BA4F9"/></linearGradient></defs></svg>